<svg xmlns="http://www.w3.org/2000/svg" width="817.053" height="198.425"><path fill="#00BFF3" d="M29.421 55.172l13.317 13.405V34.205l27.255 22.35v54.111l1.012.963-41.584-35.438v.25L5.4 56.83 0 53.025v96.233l58.533 49.167v-55.494l-15.795-13.428v34.721l-26.944-22.35V87.178l1.45.241 41.289 34.691v-.124l7.64 6.666 19.615 16.487V49.17L29.421 0z"/><path fill="#DDDDDC" d="M172.167 114.019l-28.673-37.78h-12.41v61.355h13.284V98.589l29.635 39.005h11.447V76.239h-13.283zm125.436-2.631c0 4.906-1.167 8.589-3.496 11.043-2.332 2.453-5.566 3.682-9.703 3.682-4.139 0-7.371-1.27-9.703-3.813-2.332-2.541-3.495-6.324-3.495-11.354V76.239h-13.462v35.063c0 9.053 2.361 15.861 7.08 20.42 4.719 4.559 11.188 6.835 19.404 6.835 4.08 0 7.78-.569 11.102-1.709 3.323-1.136 6.147-2.86 8.48-5.169 2.331-2.307 4.121-5.185 5.375-8.635 1.251-3.45 1.88-7.51 1.88-12.183V76.239h-13.462v35.149zm74.604-2.586c2.419-3.125 3.631-7.173 3.631-12.141v-.173c0-5.843-1.75-10.519-5.248-14.025-4.136-4.148-10.083-6.224-17.829-6.224h-27.973v61.355h13.46v-19.632h10.579l13.111 19.632h15.734l-14.947-21.911c3.903-1.462 7.065-3.758 9.482-6.881zm-10.009-11.441c0 2.63-.888 4.735-2.665 6.312-1.776 1.579-4.327 2.369-7.648 2.369h-13.636v-17.62h13.375c3.32 0 5.914.73 7.78 2.191 1.864 1.461 2.795 3.654 2.795 6.576v.172zm78.98-12.926c-2.885-2.834-6.309-5.081-10.27-6.75-3.967-1.665-8.307-2.496-13.027-2.496-4.719 0-9.076.832-13.068 2.496-3.992 1.668-7.431 3.945-10.314 6.837-2.885 2.893-5.145 6.254-6.776 10.081-1.63 3.827-2.446 7.931-2.446 12.315v.173c0 4.383.8 8.491 2.402 12.314 1.603 3.826 3.846 7.16 6.731 9.993 2.886 2.837 6.306 5.085 10.271 6.751 3.963 1.663 8.305 2.494 13.023 2.494 4.723 0 9.08-.831 13.07-2.494 3.99-1.666 7.43-3.945 10.313-6.84 2.889-2.893 5.141-6.252 6.775-10.08 1.629-3.822 2.449-7.928 2.449-12.312v-.173c0-4.386-.801-8.492-2.404-12.318-1.602-3.825-3.844-7.156-6.729-9.991zm-4.939 22.656c0 2.631-.453 5.1-1.355 7.405-.906 2.313-2.158 4.343-3.758 6.095-1.604 1.752-3.539 3.127-5.816 4.119-2.27.992-4.746 1.488-7.428 1.488-2.74 0-5.232-.51-7.473-1.533a18.553 18.553 0 0 1-5.858-4.166c-1.66-1.752-2.941-3.795-3.845-6.13-.905-2.338-1.356-4.825-1.356-7.451v-.173c0-2.631.451-5.104 1.356-7.412.904-2.307 2.153-4.336 3.758-6.089 1.604-1.754 3.523-3.127 5.77-4.121 2.244-.995 4.73-1.492 7.473-1.492 2.68 0 5.16.513 7.432 1.535 2.271 1.026 4.242 2.413 5.898 4.163 1.664 1.754 2.941 3.798 3.848 6.136.902 2.338 1.355 4.82 1.355 7.452v.174zm56.64-4.907l-16.08-25.945H462.29v61.355h13.285V97.8l17.047 25.945h.347l17.219-26.206v40.055h13.289V76.239h-14.51zm66.26-26.383l-26.223 61.793h13.725l5.594-13.762h25.871l5.596 13.762h14.074l-26.225-61.793h-12.412zm-2.096 36.112l8.127-19.898 8.129 19.898h-16.256zM598 88.685h18.62v48.909h13.463V88.685H648.7V76.239H598zm61.624-12.446h13.463v61.355h-13.463zm81.947 8.196c-2.879-2.834-6.309-5.081-10.268-6.75-3.963-1.665-8.305-2.496-13.023-2.496-4.723 0-9.08.832-13.07 2.496-3.994 1.668-7.432 3.945-10.316 6.837-2.885 2.893-5.139 6.254-6.771 10.081s-2.449 7.931-2.449 12.315v.173c0 4.383.801 8.491 2.404 12.314 1.6 3.826 3.848 7.16 6.73 9.993 2.887 2.837 6.311 5.085 10.275 6.751 3.959 1.663 8.301 2.494 13.021 2.494s9.072-.831 13.068-2.494c3.992-1.666 7.428-3.945 10.313-6.84 2.887-2.893 5.141-6.252 6.773-10.08 1.635-3.822 2.451-7.928 2.451-12.312v-.173c0-4.386-.801-8.492-2.402-12.318-1.607-3.825-3.849-7.156-6.736-9.991zm-4.938 22.656c0 2.631-.451 5.1-1.354 7.405-.904 2.313-2.158 4.343-3.758 6.095-1.605 1.752-3.545 3.127-5.816 4.119s-4.752 1.488-7.426 1.488c-2.744 0-5.234-.51-7.475-1.533a18.591 18.591 0 0 1-5.859-4.166c-1.658-1.752-2.943-3.795-3.846-6.13-.906-2.338-1.352-4.825-1.352-7.451v-.173c0-2.631.445-5.104 1.352-7.412.902-2.307 2.156-4.336 3.762-6.089 1.6-1.754 3.523-3.127 5.768-4.121 2.24-.995 4.734-1.492 7.475-1.492 2.678 0 5.156.513 7.432 1.535 2.27 1.026 4.236 2.413 5.9 4.163 1.658 1.754 2.939 3.798 3.844 6.136.902 2.338 1.354 4.82 1.354 7.452v.174zm67.137-30.852v37.78l-28.676-37.78h-12.412v61.355h13.289V98.589l29.633 39.005h11.449V76.239zm-603.084.094h47.384v11.491h-47.384zm0 23.912h47.384v11.178h-47.384zm0 23.6h47.384v11.489h-47.384z"/></svg>