<?xml version="1.0" encoding="utf-8"?>
<!-- Generator: Adobe Illustrator 16.0.0, SVG Export Plug-In . SVG Version: 6.00 Build 0)  -->
<!DOCTYPE svg PUBLIC "-//W3C//DTD SVG 1.1//EN" "http://www.w3.org/Graphics/SVG/1.1/DTD/svg11.dtd">
<svg version="1.1" id="Layer_1" xmlns="http://www.w3.org/2000/svg" xmlns:xlink="http://www.w3.org/1999/xlink" x="0px" y="0px"
	 width="817.053px" height="198.425px" viewBox="0 0 817.053 198.425" enable-background="new 0 0 817.053 198.425"
	 xml:space="preserve">
<g>
	<polygon fill="#00BFF3" points="29.421,55.172 42.738,68.577 42.738,34.205 69.993,56.555 69.993,110.666 71.005,111.629 
		29.421,76.191 29.421,76.441 5.4,56.83 0,53.025 0,149.258 58.533,198.425 58.533,142.931 42.738,129.503 42.738,164.224 
		15.794,141.874 15.794,87.178 17.244,87.419 58.533,122.11 58.533,121.986 66.173,128.652 85.788,145.139 85.788,49.17 29.421,0 	
		"/>
	<polygon fill="#DDDDDC" points="172.167,114.019 143.494,76.239 131.084,76.239 131.084,137.594 144.368,137.594 144.368,98.589 
		174.003,137.594 185.45,137.594 185.45,76.239 172.167,76.239 	"/>
	<path fill="#DDDDDC" d="M297.603,111.388c0,4.906-1.167,8.589-3.496,11.043c-2.332,2.453-5.566,3.682-9.703,3.682
		c-4.139,0-7.371-1.27-9.703-3.813c-2.332-2.541-3.495-6.324-3.495-11.354V76.239h-13.462v35.063c0,9.053,2.361,15.861,7.08,20.42
		c4.719,4.559,11.188,6.835,19.404,6.835c4.08,0,7.78-0.569,11.102-1.709c3.323-1.136,6.147-2.86,8.48-5.169
		c2.331-2.307,4.121-5.185,5.375-8.635c1.251-3.45,1.88-7.51,1.88-12.183V76.239h-13.462V111.388z"/>
	<g>
		<path fill="#DDDDDC" d="M372.207,108.802c2.419-3.125,3.631-7.173,3.631-12.141v-0.173c0-5.843-1.75-10.519-5.248-14.025
			c-4.136-4.148-10.083-6.224-17.829-6.224h-27.973v61.355h13.46v-19.632h10.579l13.111,19.632h15.734l-14.947-21.911
			C366.628,114.221,369.79,111.925,372.207,108.802z M362.198,97.361c0,2.63-0.888,4.735-2.665,6.312
			c-1.776,1.579-4.327,2.369-7.648,2.369h-13.636v-17.62h13.375c3.32,0,5.914,0.73,7.78,2.191c1.864,1.461,2.795,3.654,2.795,6.576
			V97.361z"/>
		<path fill="#DDDDDC" d="M441.178,84.435c-2.885-2.834-6.309-5.081-10.27-6.75c-3.967-1.665-8.307-2.496-13.027-2.496
			c-4.719,0-9.076,0.832-13.068,2.496c-3.992,1.668-7.431,3.945-10.314,6.837c-2.885,2.893-5.145,6.254-6.776,10.081
			c-1.63,3.827-2.446,7.931-2.446,12.315v0.173c0,4.383,0.8,8.491,2.402,12.314c1.603,3.826,3.846,7.16,6.731,9.993
			c2.886,2.837,6.306,5.085,10.271,6.751c3.963,1.663,8.305,2.494,13.023,2.494c4.723,0,9.08-0.831,13.07-2.494
			c3.99-1.666,7.43-3.945,10.313-6.84c2.889-2.893,5.141-6.252,6.775-10.08c1.629-3.822,2.449-7.928,2.449-12.312v-0.173
			c0-4.386-0.801-8.492-2.404-12.318C446.305,90.601,444.063,87.27,441.178,84.435z M436.239,107.091c0,2.631-0.453,5.1-1.355,7.405
			c-0.906,2.313-2.158,4.343-3.758,6.095c-1.604,1.752-3.539,3.127-5.816,4.119c-2.27,0.992-4.746,1.488-7.428,1.488
			c-2.74,0-5.232-0.51-7.473-1.533c-2.246-1.02-4.197-2.412-5.858-4.166c-1.66-1.752-2.941-3.795-3.845-6.13
			c-0.905-2.338-1.356-4.825-1.356-7.451v-0.173c0-2.631,0.451-5.104,1.356-7.412c0.904-2.307,2.153-4.336,3.758-6.089
			c1.604-1.754,3.523-3.127,5.77-4.121c2.244-0.995,4.73-1.492,7.473-1.492c2.68,0,5.16,0.513,7.432,1.535
			c2.271,1.026,4.242,2.413,5.898,4.163c1.664,1.754,2.941,3.798,3.848,6.136c0.902,2.338,1.355,4.82,1.355,7.452V107.091z"/>
		<polygon fill="#DDDDDC" points="492.879,102.184 476.799,76.239 462.29,76.239 462.29,137.594 475.575,137.594 475.575,97.8 
			492.622,123.745 492.969,123.745 510.188,97.539 510.188,137.594 523.477,137.594 523.477,76.239 508.967,76.239 		"/>
		<path fill="#DDDDDC" d="M559.139,75.801l-26.223,61.793h13.725l5.594-13.762h25.871l5.596,13.762h14.074l-26.225-61.793H559.139z
			 M557.043,111.913l8.127-19.898l8.129,19.898H557.043z"/>
		<polygon fill="#DDDDDC" points="598,88.685 616.62,88.685 616.62,137.594 630.083,137.594 630.083,88.685 648.7,88.685 
			648.7,76.239 598,76.239 		"/>
		<rect x="659.624" y="76.239" fill="#DDDDDC" width="13.463" height="61.355"/>
		<path fill="#DDDDDC" d="M741.571,84.435c-2.879-2.834-6.309-5.081-10.268-6.75c-3.963-1.665-8.305-2.496-13.023-2.496
			c-4.723,0-9.08,0.832-13.07,2.496c-3.994,1.668-7.432,3.945-10.316,6.837c-2.885,2.893-5.139,6.254-6.771,10.081
			s-2.449,7.931-2.449,12.315v0.173c0,4.383,0.801,8.491,2.404,12.314c1.6,3.826,3.848,7.16,6.73,9.993
			c2.887,2.837,6.311,5.085,10.275,6.751c3.959,1.663,8.301,2.494,13.021,2.494s9.072-0.831,13.068-2.494
			c3.992-1.666,7.428-3.945,10.313-6.84c2.887-2.893,5.141-6.252,6.773-10.08c1.635-3.822,2.451-7.928,2.451-12.312v-0.173
			c0-4.386-0.801-8.492-2.402-12.318C746.7,90.601,744.458,87.27,741.571,84.435z M736.633,107.091c0,2.631-0.451,5.1-1.354,7.405
			c-0.904,2.313-2.158,4.343-3.758,6.095c-1.605,1.752-3.545,3.127-5.816,4.119s-4.752,1.488-7.426,1.488
			c-2.744,0-5.234-0.51-7.475-1.533c-2.246-1.02-4.195-2.412-5.859-4.166c-1.658-1.752-2.943-3.795-3.846-6.13
			c-0.906-2.338-1.352-4.825-1.352-7.451v-0.173c0-2.631,0.445-5.104,1.352-7.412c0.902-2.307,2.156-4.336,3.762-6.089
			c1.6-1.754,3.523-3.127,5.768-4.121c2.24-0.995,4.734-1.492,7.475-1.492c2.678,0,5.156,0.513,7.432,1.535
			c2.27,1.026,4.236,2.413,5.9,4.163c1.658,1.754,2.939,3.798,3.844,6.136c0.902,2.338,1.354,4.82,1.354,7.452V107.091z"/>
		<polygon fill="#DDDDDC" points="803.77,76.239 803.77,114.019 775.094,76.239 762.682,76.239 762.682,137.594 775.971,137.594 
			775.971,98.589 805.604,137.594 817.053,137.594 817.053,76.239 		"/>
	</g>
	<rect x="200.686" y="76.333" fill="#DDDDDC" width="47.384" height="11.491"/>
	<rect x="200.686" y="100.245" fill="#DDDDDC" width="47.384" height="11.178"/>
	<rect x="200.686" y="123.845" fill="#DDDDDC" width="47.384" height="11.489"/>
</g>
</svg>
